<svg width="14" height="15" viewBox="0 0 14 15" fill="none" xmlns="http://www.w3.org/2000/svg">
<g clip-path="url(#clip0_321_1990)">
<path d="M12.25 13.125L8.75 9.375M9.91667 6.25C9.91667 6.82453 9.81105 7.39344 9.60584 7.92424C9.40063 8.45504 9.09986 8.93734 8.72069 9.34359C8.34151 9.74985 7.89137 10.0721 7.39596 10.292C6.90054 10.5118 6.36956 10.625 5.83333 10.625C5.2971 10.625 4.76612 10.5118 4.27071 10.292C3.7753 10.0721 3.32515 9.74985 2.94598 9.34359C2.56681 8.93734 2.26603 8.45504 2.06083 7.92424C1.85562 7.39344 1.75 6.82453 1.75 6.25C1.75 5.08968 2.18021 3.97688 2.94598 3.15641C3.71175 2.33594 4.75037 1.875 5.83333 1.875C6.9163 1.875 7.95491 2.33594 8.72069 3.15641C9.48646 3.97688 9.91667 5.08968 9.91667 6.25Z" stroke="#3F3F46" stroke-width="2" stroke-linecap="round" stroke-linejoin="round"/>
</g>
<defs>
<clipPath id="clip0_321_1990">
<rect width="14" height="15" fill="white"/>
</clipPath>
</defs>
</svg>
