<svg width="48" height="38" viewBox="0 0 48 38" fill="none" xmlns="http://www.w3.org/2000/svg">
<path d="M14.0001 25.3339C12.0302 25.3356 10.1287 24.7619 8.65989 23.7226C7.19112 22.6833 6.25838 21.2514 6.04037 19.7015C5.82236 18.1515 6.33441 16.5923 7.47842 15.3227C8.62242 14.053 10.3179 13.1622 12.2401 12.8208C11.684 10.7674 12.181 8.62314 13.6218 6.85981C15.0627 5.09647 17.3293 3.85849 19.9231 3.4182C22.517 2.9779 25.2255 3.37137 27.4529 4.51204C29.6802 5.6527 31.244 7.44713 31.8001 9.50057H32.0001C34.4801 9.4986 36.8724 10.2262 38.7128 11.5421C40.5532 12.858 41.7103 14.6683 41.9596 16.6216C42.2088 18.5749 41.5323 20.5319 40.0615 22.1126C38.5907 23.6933 36.4305 24.7849 34.0001 25.1756M30.0001 20.5839L24.0001 15.8339M24.0001 15.8339L18.0001 20.5839M24.0001 15.8339V34.8339" stroke="#690E89" stroke-width="5" stroke-linecap="round" stroke-linejoin="round"/>
</svg>
